inDegrees=yes
name=ik_S51_A11_T02
DataType=double
version=3
OpenSimVersion=4.3-2021-08-27-4bc7ad9
endheader
time	pelvis_tilt	pelvis_list	pelvis_rotation	pelvis_tx	pelvis_ty	pelvis_tz	hip_flexion_r	hip_adduction_r	hip_rotation_r	knee_angle_r	knee_angle_r_beta	ankle_angle_r	subtalar_angle_r	mtp_angle_r	hip_flexion_l	hip_adduction_l	hip_rotation_l	knee_angle_l	knee_angle_l_beta	ankle_angle_l	subtalar_angle_l	mtp_angle_l	lumbar_extension	lumbar_bending	lumbar_rotation	arm_flex_r	arm_add_r	arm_rot_r	elbow_flex_r	pro_sup_r	wrist_flex_r	wrist_dev_r	arm_flex_l	arm_add_l	arm_rot_l	elbow_flex_l	pro_sup_l	wrist_flex_l	wrist_dev_l
8.939999999999898	-4.043604594796658	11.03234154957006	74.72328686475535	0	0.9399999999999999	0	44.60397349928247	-9.999912004767999	-10.01087877091105	53.04125973817025	0.9257446218365764	0	0	0	44.60397349928247	-9.999912004767999	-10.01087877091105	53.04125973817025	0.9257446218365764	0	0	0	-8.03479043789836	-10.74353906765165	-18.2347908548738	99.10994545716065	-21.86451509792291	14.87879175035715	98.91699001596899	-9.978635557675737	0	0	4.862633102722693	-7.991643160601	-2.713448707522295	6.432793811104818	140.1493460190617	0	0
8.959999999999898	-4.050936632448342	11.06227451666182	74.75698686363931	0	0.9399999999999999	0	44.60404719465362	-9.999912060741114	-10.01087429976049	53.0415090901146	0.9257489738490015	0	0	0	44.60404719465362	-9.999912060741114	-10.01087429976049	53.0415090901146	0.9257489738490015	0	0	0	-8.004161336553802	-10.72860738555211	-18.2700300033823	99.03654053184167	-21.80654792095686	14.8432633592699	98.80614230168536	-9.978663493706172	0	0	4.816483802113417	-7.971836416277549	-2.742657177523519	6.437477825005322	140.2033713134413	0	0
8.979999999999897	-4.063264829208292	11.07211213394159	74.78605394620473	0	0.9399999999999999	0	44.60412633995121	-9.999912119387215	-10.01086957559748	53.04178295783987	0.9257537537425223	0	0	0	44.60412633995121	-9.999912119387215	-10.01086957559748	53.04178295783987	0.9257537537425223	0	0	0	-7.995110580228338	-10.71309128110284	-18.28120303029623	99.02455590142094	-21.85661289183533	14.83911230024102	98.73915167936859	-9.978710453912493	0	0	4.802698075901555	-7.948104053549383	-2.737237763470924	6.448652285471638	140.2595660597646	0	0
8.999999999999897	-4.067582686576561	11.07175117424026	74.76928015395615	0	0.9399999999999999	0	44.60417968079914	-9.999912157863948	-10.01086644703728	53.04197182852985	0.9257570501579231	0	0	0	44.60417968079914	-9.999912157863948	-10.01086644703728	53.04197182852985	0.9257570501579231	0	0	0	-7.99571927875335	-10.70692985219976	-18.26420374641013	99.03466764563812	-21.84415751065143	14.84174343545414	98.69900659109167	-9.978657275012512	0	0	4.818417604035004	-7.941180683942033	-2.63139087901155	6.451619357191769	140.2511534478677	0	0
9.019999999999897	-4.077089882730305	11.06583574478017	74.76656591872215	0	0.9399999999999999	0	44.60425943540385	-9.999912217383315	-10.01086166352712	53.0422458743122	0.9257618331591263	0	0	0	44.60425943540385	-9.999912217383315	-10.01086166352712	53.0422458743122	0.9257618331591263	0	0	0	-8.003465895572724	-10.69522074634717	-18.22391690179828	99.07771035436507	-21.94678735781025	14.92873785241015	98.65235076460445	-9.978608514543268	0	0	4.829495354457326	-7.938972496090789	-2.540280485597993	6.471021078218902	140.2381214824321	0	0
9.039999999999896	-4.087079871915737	11.05548466167258	74.79150038986312	0	0.9399999999999999	0	44.60432255892733	-9.99991226511554	-10.01085784398359	53.04246005731839	0.9257655713577861	0	0	0	44.60432255892733	-9.99991226511554	-10.01085784398359	53.04246005731839	0.9257655713577861	0	0	0	-8.013161708002068	-10.68763915619479	-18.24537544779778	99.1057844739571	-21.98515360521065	15.01713643465012	98.62591369933689	-9.978568278918365	0	0	4.813544763075867	-7.977523934037814	-2.591997582370168	6.489171305266367	140.2887646358974	0	0
9.059999999999896	-4.08693230752913	11.05351813364432	74.81497373349536	0	0.9399999999999999	0	44.60438212351611	-9.999912309731418	-10.01085426217672	53.04266389067029	0.9257691289209021	0	0	0	44.60438212351611	-9.999912309731418	-10.01085426217672	53.04266389067029	0.9257691289209021	0	0	0	-8.012071118579247	-10.68755665077861	-18.26938796554777	99.11692050986753	-21.98953931490788	15.12476052806282	98.6187474425891	-9.978566348760181	0	0	4.810483702669432	-7.990055923438681	-2.60330081693789	6.482277100455999	140.3142376939669	0	0
9.079999999999895	-4.097810173995838	11.05233235692569	74.82921291339204	0	0.9399999999999999	0	44.60443574367644	-9.999912349735231	-10.01085104610629	53.04284799586796	0.9257723421627715	0	0	0	44.60443574367644	-9.999912349735231	-10.01085104610629	53.04284799586796	0.9257723421627715	0	0	0	-8.014427191843147	-10.67623001518532	-18.27344297415274	99.15605659364955	-22.01533682330666	15.23185392980148	98.56277250791565	-9.978598604722151	0	0	4.767743691239663	-8.027796723388835	-2.59797962931248	6.460835407333731	140.3252803790044	0	0
9.099999999999895	-4.122748423322146	11.05301097270948	74.79276249601715	0	0.9399999999999999	0	44.60452792148716	-9.999912417435237	-10.0108455740828	53.04316892193494	0.9257779433792958	0	0	0	44.60452792148716	-9.999912417435237	-10.0108455740828	53.04316892193494	0.9257779433792958	0	0	0	-8.018754815815438	-10.64807883105504	-18.24467966722677	99.26538986094941	-22.06190376203958	15.35640456253365	98.36184039814154	-9.97855447500622	0	0	4.800979301761561	-7.977209947265759	-2.607426257215537	6.455038123405276	140.3340539615686	0	0
9.119999999999894	-4.132433484401862	11.05335561510317	74.75208085941829	0	0.9399999999999999	0	44.60463685690805	-9.999912500961916	-10.01083891953802	53.04353324533266	0.925784302022128	0	0	0	44.60463685690805	-9.999912500961916	-10.01083891953802	53.04353324533266	0.925784302022128	0	0	0	-8.019337274580955	-10.63364595016808	-18.20051804521146	99.35506753677413	-22.12610905307432	15.37004465273255	98.26358936718731	-9.978575379703907	0	0	4.782310162077255	-7.990884805915613	-2.442419904323886	6.451321884718992	140.3078614224062	0	0
9.139999999999894	-4.13976486153542	11.06655053119419	74.70362306895248	0	0.9399999999999999	0	44.60469647355957	-9.999912544994219	-10.01083536663498	53.04373957198884	0.9257879031016131	0	0	0	44.60469647355957	-9.999912544994219	-10.01083536663498	53.04373957198884	0.9257879031016131	0	0	0	-8.007105599228883	-10.62075912076829	-18.17819768008899	99.41030539428162	-22.13540379822654	15.33137288555928	98.1897625569451	-9.978525796378092	0	0	4.744506791459461	-7.988850476094893	-2.39711774075572	6.463386329945339	140.2388335220461	0	0
